<svg xmlns="http://www.w3.org/2000/svg" viewBox="0 0 609.76 198.76"><g id="Layer_2" data-name="Layer 2"><g id="Layer_1-2" data-name="Layer 1"><path d="M425.57,186.73c.23,2.69,2.31,4.14,6,4.14,3.25,0,5.26-1.5,5.26-3.93,0-2.06-1.25-3-4.93-3.81l-4.34-.94c-6.49-1.39-9.87-5-9.87-10.53,0-7.18,5.31-11.72,13.73-11.72,8.2,0,13.7,4.49,13.83,11.29h-8.65c-.15-2.56-2.08-4.16-5.08-4.16-2.84,0-4.64,1.37-4.64,3.52s1.32,3.4,4.64,4.09l4.19.89c7.05,1.47,10.23,4.69,10.23,10.33,0,7.66-5.36,12.12-14.57,12.12-8.88,0-14.26-4.21-14.41-11.29Z"/><path d="M458.9,197.29V168.16h-10v-7.49h29.38v7.49H468.18v29.13Z"/><path d="M500.52,183.66v-23h9.32v23.5c0,8.75-5.21,13.85-14.16,13.85s-14.16-5.1-14.16-13.85v-23.5h9.31v23c0,4.27,1.68,6.52,4.85,6.52S500.52,187.93,500.52,183.66Z"/><path d="M527,160.67c10.17,0,15.6,6.25,15.6,17.94,0,12.31-5.33,18.68-15.6,18.68H514.06V160.67Zm-3.58,29.13h2.16c5.25,0,7.53-3.35,7.53-11,0-7.18-2.43-10.63-7.53-10.63h-2.16Z"/><path d="M547.59,197.29V189.8h7.71V168.16h-7.71v-7.49H572.3v7.49h-7.71V189.8h7.71v7.49Z"/><path d="M592.08,198c-9.13,0-14.59-6.11-14.59-16.34v-5.4c0-10.23,5.46-16.34,14.59-16.34s14.59,6.11,14.59,16.34v5.4C606.67,191.91,601.22,198,592.08,198Zm5.13-16.44v-5.2c0-6-1.6-8.73-5.13-8.73s-5.12,2.74-5.12,8.73v5.2c0,6,1.59,8.73,5.12,8.73S597.21,187.57,597.21,181.58Z"/><path d="M231,184.48h9.46c0,9-5.2,14.28-14.18,14.28-9.42,0-15-5.58-15-15v-8.09c0-9.41,5.58-15,15-15,9,0,14.13,5.26,14.13,14.44h-9.47c0-4.08-1.87-6.65-4.87-6.65-3.32,0-5.07,2.49-5.07,7.21v8.09c0,4.75,1.77,7.21,5.22,7.21C229.15,191,231,188.48,231,184.48Z"/><path d="M257.55,198.76c-9.13,0-14.59-6.11-14.59-16.34V177c0-10.23,5.46-16.35,14.59-16.35s14.59,6.12,14.59,16.35v5.4C272.14,192.65,266.69,198.76,257.55,198.76Zm5.13-16.44v-5.2c0-6-1.6-8.73-5.13-8.73s-5.12,2.74-5.12,8.73v5.2c0,6,1.6,8.73,5.12,8.73S262.68,188.31,262.68,182.32Z"/><path d="M288.83,161.41c10.17,0,15.6,6.24,15.6,17.94,0,12.31-5.33,18.68-15.6,18.68H275.94V161.41Zm-3.58,29.13h2.15c5.26,0,7.54-3.35,7.54-11,0-7.18-2.44-10.63-7.54-10.63h-2.15Z"/><path d="M309.47,198v-7.49h7.71V168.9h-7.71v-7.49h24.71v7.49h-7.71v21.64h7.71V198Z"/><path d="M340.64,198V161.41h8l10.25,21.87h.49V161.41h7.89V198h-8L349,176h-.48V198Z"/><path d="M391.4,184.45h-5.59v-6.39h15.05v7.51c0,8.09-5.46,13.19-14.06,13.19-9.36,0-14.87-5.53-14.87-15v-8.09c0-9.46,5.51-15,14.87-15,8.48,0,13.81,5,14,13.2h-9.47c-.17-3.3-2.08-5.41-4.84-5.41-3.38,0-5.1,2.44-5.1,7.21v8.09q0,7.2,5.25,7.21c3,0,4.75-2,4.75-5.4Z"/><path d="M429,12.1l77.14,38.14V73.6L429,111.74V81.81l46.81-19.07V61.1L429,42Z"/><path d="M70.49,2.27H98.94L67.05,115H32L0,2.27H31.26l18.6,87.37h1.48Z"/><path d="M161.38,90.26h-28.6L127.39,115H98.94L130.83,2.27h35.08l32,112.76H166.62ZM137.31,69.63h19.62l-8.91-42h-1.49Z"/><path d="M229.38,82.52c.7,8.29,7.11,12.74,18.36,12.74,10,0,16.18-4.61,16.18-12.11,0-6.33-3.83-9.3-15.16-11.72L235.4,68.54c-20-4.3-30.4-15.48-30.4-32.44C205,14,221.33,0,247.27,0c25.25,0,42.2,13.83,42.59,34.78H263.22c-.47-7.9-6.41-12.82-15.63-12.82-8.76,0-14.31,4.22-14.31,10.86,0,6.88,4.07,10.47,14.31,12.58l12.89,2.74C282.21,52.67,292,62.6,292,80c0,23.6-16.49,37.35-44.86,37.35-27.35,0-43.92-13-44.39-34.78Z"/><path d="M360.67,115V69.55H331.91V115h-28V2.27h28V46.5h28.76V2.27h28V115Z"/><rect x="517.05" y="103.26" width="92.72" height="22.93"/></g></g></svg>